<?xml version="1.0" encoding="UTF-8"?>
<!DOCTYPE svg PUBLIC "-//W3C//DTD SVG 1.0//EN" "http://www.w3.org/TR/2001/REC-SVG-20010904/DTD/svg10.dtd">
<!-- Creator: CorelDRAW -->
<svg xmlns="http://www.w3.org/2000/svg" xml:space="preserve" width="127mm" height="127mm" version="1.0" style="shape-rendering:geometricPrecision; text-rendering:geometricPrecision; image-rendering:optimizeQuality; fill-rule:evenodd; clip-rule:evenodd"
viewBox="0 0 12699.98 12699.98"
 xmlns:xlink="http://www.w3.org/1999/xlink"
 xmlns:xodm="http://www.corel.com/coreldraw/odm/2003">
 <defs>
  <style type="text/css">
   <![CDATA[
    .fil0 {fill:white}
    .fil1 {fill:#C2755B;fill-rule:nonzero}
   ]]>
  </style>
 </defs>
 <g id="Layer_x0020_1">
  <metadata id="CorelCorpID_0Corel-Layer"/>
  <g id="_2736486868800">
   <circle class="fil0" cx="6349.99" cy="6349.99" r="6349.99"/>
   <path class="fil1" d="M11942.41 7638.87c398.61,-1794.06 -592.52,-1362.03 -1603.27,-615.89 -761.23,693.57 -932.95,1885.74 -1845.79,2441.12 -172.4,159.16 -823.64,299.17 -798.87,529.94 961.17,619.41 2282.46,108.67 3143.83,-661.67 546.78,-488.21 938.87,-1089.68 1104.1,-1693.5zm-5919.17 1898.48c80.15,-154 52.77,-294.23 -25.86,-418.83 -826.06,-1187.01 -2373.34,-896.24 -3488.19,-1573.15 -411.77,-254.22 -659.52,-697.25 -1086.26,-925.29 -429.15,349.31 -212.4,987.65 4.82,1484.73 690.83,1434.06 3327.16,2784.74 4595.49,1432.54zm-3179.56 -3853.41c-1829.59,172.51 -1113.68,982.83 -92.76,1714.94 893.98,510.97 2081.26,307.77 2890.44,1005.43 204.52,115.09 538.05,691.75 750,597.19 293.7,-1105.12 -598.62,-2205.23 -1596.62,-2787.93 -632.73,-370.05 -1325.65,-558.15 -1951.06,-529.63zm959.39 -3455.96c121.87,-123.69 263.73,-140.76 406.54,-104.23 1383.57,420.84 1582.71,1982.68 2569.79,2835.14 368.54,313.58 866.27,413.19 1214.55,748.99 -200.43,515.82 -874.39,505.96 -1414.3,452.1 -1576.98,-216.25 -3673.08,-2309.24 -2776.58,-3932zm4644.61 1840.07c398.58,1794.13 -592.45,1361.95 -1603.27,615.85 -761.2,-693.57 -932.99,-1885.7 -1845.79,-2441.13 -172.4,-159.12 -823.64,-299.2 -798.91,-529.93 961.25,-619.41 2282.42,-108.64 3143.87,661.67 546.74,488.21 938.83,1089.68 1104.1,1693.54zm-1149.88 5410.89c121.87,123.65 263.73,140.76 406.54,104.23 1383.5,-420.88 1582.75,-1982.65 2569.75,-2835.19 368.61,-313.65 866.34,-413.07 1214.59,-748.98 -200.47,-515.79 -874.46,-505.92 -1414.3,-452.1 -1576.9,216.24 -3673.11,2309.31 -2776.58,3932.04z"/>
  </g>
 </g>
</svg>
